#!OML:ASF X:\für Bonn\!DataBase\2005_08_10_Bjorn_Final\c3d\bjorn.ASF
:FULLY-SPECIFIED
:DEGREES
110
root 0.675833 18.5617 1.02005 -183.776 3.49712 181.392
lowerback -28.0756 -0.0707688 -1.05424
upperback 7.386 -0.0878165 1.98553
thorax 24.4688 -0.403628 2.91569
lowerneck 30.8163 -5.59579 5.30861
upperneck 18.6257 0.180746 3.83827
head 1.37163 2.68365 0.442826
rclavicle -7.06384e-015 -1.19271e-014
rhumerus -1461.84 -28.7379 1460.05
rradius 23.4849
rwrist 17.3126
rhand -1.7614 -10.9838
rfingers 7.12502
rthumb 23.9022 -39.5163
lclavicle -7.06384e-015 -1.19271e-014
lhumerus -1648.17 137.834 -1642.07
lradius 39.2442
lwrist -28.9816
lhand -41.0975 6.15216
lfingers 7.12502
lthumb -14.0256 35.659
rfemur 1.21083 -7.19396 14.1868
rtibia 32.4665
rfoot -25.6173 11.4427
rtoes -17.8429
lfemur 3.32105 9.98503 -11.1647
ltibia 34.2412
lfoot -21.4226 -8.33191
ltoes -10.3441
111
root 0.667102 18.5678 1.03721 -183.783 3.41498 181.382
lowerback -27.9771 -0.066943 -1.1745
upperback 7.51399 -0.0495033 2.07647
thorax 24.5949 -0.41897 3.11534
lowerneck 30.47 -5.41649 5.0599
upperneck 18.3365 0.159436 3.97531
head 1.30947 2.5942 0.525853
rclavicle 4.4944e-015 -1.11319e-014
rhumerus -1464.3 -26.6192 1458.04
rradius 23.2469
rwrist 15.9294
rhand -1.30062 -10.845
rfingers 7.12502
rthumb 24.344 -39.3189
lclavicle 4.4944e-015 -1.11319e-014
lhumerus -1649.86 140.063 -1639.21
lradius 39.4043
lwrist -29.5759
lhand -41.162 6.54545
lfingers 7.12502
lthumb -14.0878 36.0479
rfemur 1.17376 -7.2425 14.1527
rtibia 32.4461
rfoot -25.5362 11.3757
rtoes -18.0004
lfemur 3.20353 10.1923 -11.1233
ltibia 34.3341
lfoot -21.3375 -8.57009
ltoes -10.206
112
root 0.657622 18.5733 1.05741 -183.782 3.32162 181.352
lowerback -27.8658 -0.0693449 -1.30987
upperback 7.65147 -0.014612 2.17624
thorax 24.7278 -0.439404 3.33351
lowerneck 30.0668 -5.19752 4.73329
upperneck 18.0015 0.139623 4.13312
head 1.23897 2.49085 0.62769
rclavicle -2.40405e-015 2.14687e-014
rhumerus -1466.74 -25.2824 1455.96
rradius 23.1815
rwrist 15.0854
rhand -0.590259 -10.669
rfingers 7.12502
rthumb 25.0249 -39.0498
lclavicle -2.40405e-015 2.14687e-014
lhumerus -1651.53 141.891 -1636.08
lradius 39.4546
lwrist -30.301
lhand -41.4784 6.88592
lfingers 7.12502
lthumb -14.3926 36.3669
rfemur 1.11325 -7.33583 14.0909
rtibia 32.434
rfoot -25.4376 11.2948
rtoes -18.2391
lfemur 3.0719 10.3574 -11.1254
ltibia 34.4188
lfoot -21.2488 -8.83688
ltoes -9.77041
113
root 0.648566 18.5789 1.08304 -183.795 3.19047 181.348
lowerback -27.7078 -0.0999834 -1.46049
upperback 7.80875 -0.019248 2.31874
thorax 24.8663 -0.482327 3.59425
lowerneck 29.6389 -4.92907 4.32657
upperneck 17.5851 0.135483 4.2901
head 1.14332 2.37787 0.739581
rclavicle -5.5287e-015 1.31198e-014
rhumerus -1469.17 -24.2904 1453.69
rradius 23.1552
rwrist 13.6689
rhand -0.875281 -10.7587
rfingers 7.12502
rthumb 24.7517 -39.1773
lclavicle -5.5287e-015 1.31198e-014
lhumerus -1653.07 143.351 -1632.68
lradius 39.1932
lwrist -30.6078
lhand -41.7914 6.73752
lfingers 7.12502
lthumb -14.6942 36.1968
rfemur 1.05789 -7.39953 14.0711
rtibia 32.4334
rfoot -25.3595 11.1859
rtoes -18.4168
lfemur 2.93796 10.5301 -11.0838
ltibia 34.4986
lfoot -21.0982 -9.1888
ltoes -9.15207
114
root 0.638749 18.5853 1.11409 -183.811 3.03399 181.347
lowerback -27.4677 -0.153676 -1.59157
upperback 7.9454 -0.0630056 2.46204
thorax 24.9295 -0.535469 3.82499
lowerneck 29.2056 -4.62608 3.87764
upperneck 17.1373 0.159723 4.42133
head 1.03834 2.27303 0.847277
rclavicle -4.33599e-015 5.1684e-015
rhumerus -1471.48 -23.3749 1451.06
rradius 23.2514
rwrist 11.9708
rhand -1.66968 -11.0421
rfingers 7.12502
rthumb 23.9902 -39.5631
lclavicle -4.33599e-015 5.1684e-015
lhumerus -1654.44 144.554 -1629.19
lradius 38.5743
lwrist -31.1914
lhand -41.5304 6.72344
lfingers 7.12502
lthumb -14.4427 36.2009
rfemur 0.981511 -7.49771 14.0616
rtibia 32.4417
rfoot -25.264 11.0608
rtoes -18.5982
lfemur 2.77462 10.6357 -11.0678
ltibia 34.579
lfoot -20.9929 -9.41692
ltoes -8.77485
115
root 0.630045 18.5924 1.14901 -183.83 2.85232 181.352
lowerback -27.1812 -0.221483 -1.69734
upperback 8.07413 -0.132392 2.58999
thorax 24.955 -0.591607 4.01044
lowerneck 28.7644 -4.29424 3.38402
upperneck 16.6895 0.212843 4.55592
head 0.93546 2.18085 0.961933
rclavicle -6.17475e-015 -1.59028e-015
rhumerus -1473.77 -22.9365 1448.31
rradius 23.4531
rwrist 10.6732
rhand -2.28637 -10.8368
rfingers 7.12502
rthumb 23.3987 -39.4344
lclavicle -6.17475e-015 -1.59028e-015
lhumerus -1655.6 145.599 -1625.6
lradius 37.7183
lwrist -31.7649
lhand -40.819 6.78589
lfingers 7.12502
lthumb -13.7572 36.3111
rfemur 0.883135 -7.6029 14.0627
rtibia 32.4804
rfoot -25.1665 10.9467
rtoes -18.5694
lfemur 2.60082 10.7432 -11.0298
ltibia 34.6461
lfoot -20.8183 -9.73504
ltoes -8.06207
116
root 0.622008 18.5988 1.18952 -183.837 2.69261 181.387
lowerback -26.8731 -0.273063 -1.74023
upperback 8.22083 -0.197673 2.70023
thorax 24.9917 -0.634026 4.14217
lowerneck 28.2243 -3.94738 2.93659
upperneck 16.2001 0.278171 4.65749
head 0.832105 2.09046 1.05654
rclavicle 3.75206e-015 -2.34566e-014
rhumerus -1476.11 -23.4082 1445.73
rradius 23.5766
rwrist 10.7969
rhand -2.56278 -10.1928
rfingers 7.12502
rthumb 23.1335 -38.8239
lclavicle 3.75206e-015 -2.34566e-014
lhumerus -1656.56 146.365 -1621.92
lradius 36.6952
lwrist -32.466
lhand -39.845 7.04312
lfingers 7.12502
lthumb -12.8183 36.6296
rfemur 0.749963 -7.61182 14.1334
rtibia 32.5302
rfoot -25.0894 10.7411
rtoes -18.6399
lfemur 2.40468 10.8525 -10.9717
ltibia 34.7108
lfoot -20.6743 -10.0022
ltoes -7.45881
117
root 0.613345 18.605 1.23499 -183.873 2.51999 181.378
lowerback -26.4569 -0.327942 -1.78862
upperback 8.34614 -0.25928 2.77923
thorax 24.9288 -0.669243 4.2386
lowerneck 27.6322 -3.59987 2.51149
upperneck 15.7651 0.365636 4.71637
head 0.756452 2.02067 1.13307
rclavicle -4.74598e-015 -7.95139e-016
rhumerus -1478.39 -24.1844 1443.12
rradius 23.7586
rwrist 11.5552
rhand -2.71032 -9.61142
rfingers 7.12502
rthumb 22.9919 -38.2602
lclavicle -4.74598e-015 -7.95139e-016
lhumerus -1657.31 146.923 -1618.23
lradius 35.4363
lwrist -33.163
lhand -39.0501 7.3338
lfingers 7.12502
lthumb -12.0519 36.9668
rfemur 0.602915 -7.67068 14.1397
rtibia 32.6137
rfoot -25.0044 10.5819
rtoes -18.6979
lfemur 2.22379 10.9423 -10.9675
ltibia 34.7548
lfoot -20.5159 -10.2728
ltoes -6.7733
118
root 0.604229 18.6119 1.28286 -183.882 2.40946 181.412
lowerback -26.0516 -0.370147 -1.7575
upperback 8.4804 -0.33443 2.87767
thorax 24.8852 -0.698981 4.30822
lowerneck 26.9707 -3.21081 2.10128
upperneck 15.2616 0.494094 4.70123
head 0.66741 1.96375 1.17884
rclavicle -1.2101e-014 -2.22639e-014
rhumerus -1480.28 -25.0101 1440.26
rradius 23.7307
rwrist 12.3041
rhand -3.03118 -9.58903
rfingers 7.12502
rthumb 22.684 -38.2758
lclavicle -1.2101e-014 -2.22639e-014
lhumerus -1657.87 147.181 -1614.5
lradius 33.9646
lwrist -33.7871
lhand -38.0002 7.30068
lfingers 7.12502
lthumb -11.0394 36.9904
rfemur 0.40652 -7.71195 14.19
rtibia 32.7116
rfoot -24.8791 10.4772
rtoes -18.7027
lfemur 2.02119 11.0473 -10.9364
ltibia 34.7901
lfoot -20.3129 -10.5351
ltoes -5.75589
119
root 0.594903 18.619 1.33573 -183.914 2.31188 181.446
lowerback -25.5878 -0.402912 -1.71669
upperback 8.64001 -0.3927 2.95924
thorax 24.8377 -0.71765 4.36115
lowerneck 26.1693 -2.85052 1.83355
upperneck 14.7477 0.61291 4.5802
head 0.597417 1.90793 1.16665
rclavicle -5.71506e-015 0
rhumerus -1481.88 -26.3147 1437.49
rradius 23.2515
rwrist 13.4602
rhand -2.95918 -9.71699
rfingers 7.12502
rthumb 22.7531 -38.3953
lclavicle -5.71506e-015 0
lhumerus -1658.21 147.224 -1610.73
lradius 32.2017
lwrist -35.2881
lhand -36.329 7.89201
lfingers 7.12502
lthumb -9.42722 37.6612
rfemur 0.195393 -7.75004 14.2369
rtibia 32.8346
rfoot -24.7713 10.3398
rtoes -18.8058
lfemur 1.83612 11.1511 -10.9093
ltibia 34.808
lfoot -20.1547 -10.7238
ltoes -5.07389
